# xmcd
#
# Track frame offsets:
#	150
#	12568
#	22927
#	34512
#	47049
#	58485
#	72641
#	87383
#	100886
#	111891
#	121323
#	139015
#	146993
#	160293
#	173683
#	188436
#	196454
#	205676
#	218766
#
# Disc length: 3077 seconds
#
# Revision: 1
# Processed by: cddbd v1.5.2PL0 Copyright (c) Steve Scherf et al.
# Submitted via: EasyCDDAExtractor 10.0.5.1
#
DISCID=160c0313
DTITLE=Johnny Cash - The Legendary CD 1
DYEAR=2005
DGENRE=Country
TTITLE0=Ring Of Fire
TTITLE1=Thing Called Love
TTITLE2=I Walk The Line
TTITLE3=Folsom Prison Blues
TTITLE4=Get Rhythm
TTITLE5=Tennessee Flat Top Box
TTITLE6=Long Black Veil
TTITLE7=I Still Miss Someone
TTITLE8=Cry Cry Cry
TTITLE9=Blue Train
TTITLE10=Sunday Morning Coming Down
TTITLE11=Five Feet High And Rising
TTITLE12=Peace In The Valley
TTITLE13=Don't Take Your Guns To Town
TTITLE14=Home Of The Blues
TTITLE15=Guess Things Happen That Way
TTITLE16=I Got Stripes
TTITLE17=Ballad Of Ira Hayes
TTITLE18=The Way Of A Woman In Love
EXTD=
EXTT0=
EXTT1=
EXTT2=
EXTT3=
EXTT4=
EXTT5=
EXTT6=
EXTT7=
EXTT8=
EXTT9=
EXTT10=
EXTT11=
EXTT12=
EXTT13=
EXTT14=
EXTT15=
EXTT16=
EXTT17=
EXTT18=
PLAYORDER=
